<svg width="24" height="24" viewBox="0 0 24 24" fill="none" xmlns="http://www.w3.org/2000/svg">
<path d="M18.1222 4.46371C18.5127 4.07341 19.1458 4.07326 19.5362 4.46371C19.9267 4.85416 19.9265 5.48724 19.5362 5.87777L13.4142 11.9998L19.5362 18.1219C19.9267 18.5124 19.9267 19.1455 19.5362 19.536C19.1457 19.9263 18.5127 19.9264 18.1222 19.536L12.0001 13.4139L5.87804 19.536C5.48751 19.9265 4.8545 19.9265 4.46397 19.536C4.07345 19.1455 4.07345 18.5124 4.46397 18.1219L10.586 11.9998L4.46397 5.87777C4.07367 5.48729 4.07367 4.85419 4.46397 4.46371C4.85444 4.07324 5.4875 4.07335 5.87804 4.46371L12.0001 10.5858L18.1222 4.46371Z" fill="#222222"/>
</svg>
